<mxfile host="app.diagrams.net" agent="Mozilla/5.0 (Windows NT 10.0; Win64; x64) AppleWebKit/537.36 (KHTML, like Gecko) Chrome/128.0.0.0 Safari/537.36 Edg/128.0.0.0" version="24.7.14">
  <diagram name="Page-1" id="IByNIXyIBTPfVzcdCZ4J">
    <mxGraphModel dx="1930" dy="1147" grid="1" gridSize="10" guides="1" tooltips="1" connect="1" arrows="1" fold="1" page="1" pageScale="1" pageWidth="3300" pageHeight="4681" math="0" shadow="0">
      <root>
        <mxCell id="0" />
        <mxCell id="1" parent="0" />
        <mxCell id="g_hzQ4VimOBog4s7BzL7-20" style="edgeStyle=orthogonalEdgeStyle;rounded=0;orthogonalLoop=1;jettySize=auto;html=1;" edge="1" parent="1">
          <mxGeometry relative="1" as="geometry">
            <mxPoint x="580" y="160" as="targetPoint" />
            <mxPoint x="300" y="160" as="sourcePoint" />
          </mxGeometry>
        </mxCell>
        <mxCell id="g_hzQ4VimOBog4s7BzL7-5" value="Docs" style="text;html=1;align=center;verticalAlign=middle;resizable=0;points=[];autosize=1;strokeColor=none;fillColor=none;" vertex="1" parent="1">
          <mxGeometry x="220" y="210" width="50" height="30" as="geometry" />
        </mxCell>
        <mxCell id="g_hzQ4VimOBog4s7BzL7-8" value="" style="rounded=1;whiteSpace=wrap;html=1;strokeWidth=2;fillWeight=4;hachureGap=8;hachureAngle=45;fillColor=#1ba1e2;sketch=1;" vertex="1" parent="1">
          <mxGeometry x="600" y="105" width="90" height="40" as="geometry" />
        </mxCell>
        <mxCell id="g_hzQ4VimOBog4s7BzL7-10" value="" style="rounded=1;whiteSpace=wrap;html=1;strokeWidth=2;fillWeight=4;hachureGap=8;hachureAngle=45;fillColor=#1ba1e2;sketch=1;" vertex="1" parent="1">
          <mxGeometry x="610" y="115" width="90" height="40" as="geometry" />
        </mxCell>
        <mxCell id="g_hzQ4VimOBog4s7BzL7-11" value="" style="rounded=1;whiteSpace=wrap;html=1;strokeWidth=2;fillWeight=4;hachureGap=8;hachureAngle=45;fillColor=#1ba1e2;sketch=1;" vertex="1" parent="1">
          <mxGeometry x="620" y="125" width="90" height="40" as="geometry" />
        </mxCell>
        <mxCell id="g_hzQ4VimOBog4s7BzL7-12" value="" style="rounded=1;whiteSpace=wrap;html=1;strokeWidth=2;fillWeight=4;hachureGap=8;hachureAngle=45;fillColor=#1ba1e2;sketch=1;" vertex="1" parent="1">
          <mxGeometry x="630" y="135" width="90" height="40" as="geometry" />
        </mxCell>
        <mxCell id="g_hzQ4VimOBog4s7BzL7-13" value="" style="rounded=1;whiteSpace=wrap;html=1;strokeWidth=2;fillWeight=4;hachureGap=8;hachureAngle=45;fillColor=#1ba1e2;sketch=1;" vertex="1" parent="1">
          <mxGeometry x="640" y="145" width="90" height="40" as="geometry" />
        </mxCell>
        <mxCell id="g_hzQ4VimOBog4s7BzL7-14" value="" style="rounded=1;whiteSpace=wrap;html=1;strokeWidth=2;fillWeight=4;hachureGap=8;hachureAngle=45;fillColor=#1ba1e2;sketch=1;" vertex="1" parent="1">
          <mxGeometry x="730" y="100" width="90" height="40" as="geometry" />
        </mxCell>
        <mxCell id="g_hzQ4VimOBog4s7BzL7-15" value="" style="rounded=1;whiteSpace=wrap;html=1;strokeWidth=2;fillWeight=4;hachureGap=8;hachureAngle=45;fillColor=#1ba1e2;sketch=1;" vertex="1" parent="1">
          <mxGeometry x="740" y="110" width="90" height="40" as="geometry" />
        </mxCell>
        <mxCell id="g_hzQ4VimOBog4s7BzL7-16" value="" style="rounded=1;whiteSpace=wrap;html=1;strokeWidth=2;fillWeight=4;hachureGap=8;hachureAngle=45;fillColor=#1ba1e2;sketch=1;" vertex="1" parent="1">
          <mxGeometry x="750" y="120" width="90" height="40" as="geometry" />
        </mxCell>
        <mxCell id="g_hzQ4VimOBog4s7BzL7-17" value="" style="rounded=1;whiteSpace=wrap;html=1;strokeWidth=2;fillWeight=4;hachureGap=8;hachureAngle=45;fillColor=#1ba1e2;sketch=1;" vertex="1" parent="1">
          <mxGeometry x="760" y="130" width="90" height="40" as="geometry" />
        </mxCell>
        <mxCell id="g_hzQ4VimOBog4s7BzL7-18" value="" style="rounded=1;whiteSpace=wrap;html=1;strokeWidth=2;fillWeight=4;hachureGap=8;hachureAngle=45;fillColor=#1ba1e2;sketch=1;" vertex="1" parent="1">
          <mxGeometry x="770" y="140" width="90" height="40" as="geometry" />
        </mxCell>
        <mxCell id="g_hzQ4VimOBog4s7BzL7-21" value="Chunking" style="text;html=1;align=center;verticalAlign=middle;resizable=0;points=[];autosize=1;strokeColor=none;fillColor=none;" vertex="1" parent="1">
          <mxGeometry x="710" y="200" width="80" height="30" as="geometry" />
        </mxCell>
        <mxCell id="g_hzQ4VimOBog4s7BzL7-22" style="edgeStyle=orthogonalEdgeStyle;rounded=0;orthogonalLoop=1;jettySize=auto;html=1;" edge="1" parent="1" target="g_hzQ4VimOBog4s7BzL7-24">
          <mxGeometry relative="1" as="geometry">
            <mxPoint x="1150" y="164" as="targetPoint" />
            <mxPoint x="870" y="164" as="sourcePoint" />
          </mxGeometry>
        </mxCell>
        <mxCell id="g_hzQ4VimOBog4s7BzL7-42" value="" style="edgeStyle=orthogonalEdgeStyle;rounded=0;orthogonalLoop=1;jettySize=auto;html=1;" edge="1" parent="1" source="g_hzQ4VimOBog4s7BzL7-70" target="g_hzQ4VimOBog4s7BzL7-41">
          <mxGeometry relative="1" as="geometry">
            <Array as="points">
              <mxPoint x="1220" y="443" />
              <mxPoint x="1220" y="443" />
            </Array>
          </mxGeometry>
        </mxCell>
        <mxCell id="g_hzQ4VimOBog4s7BzL7-24" value="" style="shape=datastore;whiteSpace=wrap;html=1;fillColor=#f8cecc;strokeColor=#b85450;" vertex="1" parent="1">
          <mxGeometry x="880" y="360" width="170" height="165" as="geometry" />
        </mxCell>
        <mxCell id="g_hzQ4VimOBog4s7BzL7-25" value="Vector DB" style="text;html=1;align=center;verticalAlign=middle;resizable=0;points=[];autosize=1;strokeColor=none;fillColor=none;" vertex="1" parent="1">
          <mxGeometry x="925" y="450" width="80" height="30" as="geometry" />
        </mxCell>
        <mxCell id="g_hzQ4VimOBog4s7BzL7-26" value="" style="strokeWidth=2;html=1;shape=mxgraph.flowchart.multi-document;whiteSpace=wrap;fillColor=#A9C4EB;" vertex="1" parent="1">
          <mxGeometry x="186" y="105" width="118" height="90" as="geometry" />
        </mxCell>
        <mxCell id="g_hzQ4VimOBog4s7BzL7-29" value="" style="edgeStyle=orthogonalEdgeStyle;rounded=0;orthogonalLoop=1;jettySize=auto;html=1;" edge="1" parent="1" target="g_hzQ4VimOBog4s7BzL7-24">
          <mxGeometry relative="1" as="geometry">
            <mxPoint x="1055" y="225" as="sourcePoint" />
          </mxGeometry>
        </mxCell>
        <mxCell id="g_hzQ4VimOBog4s7BzL7-28" style="edgeStyle=orthogonalEdgeStyle;rounded=0;orthogonalLoop=1;jettySize=auto;html=1;exitX=0.5;exitY=1;exitDx=0;exitDy=0;" edge="1" parent="1">
          <mxGeometry relative="1" as="geometry">
            <mxPoint x="1055" y="225" as="sourcePoint" />
            <mxPoint x="1055" y="225" as="targetPoint" />
          </mxGeometry>
        </mxCell>
        <mxCell id="g_hzQ4VimOBog4s7BzL7-31" value="" style="shape=actor;whiteSpace=wrap;html=1;fillColor=#fff2cc;strokeColor=#d6b656;" vertex="1" parent="1">
          <mxGeometry x="205" y="380" width="80" height="100" as="geometry" />
        </mxCell>
        <mxCell id="g_hzQ4VimOBog4s7BzL7-32" value="Query" style="text;html=1;align=center;verticalAlign=middle;resizable=0;points=[];autosize=1;strokeColor=none;fillColor=none;" vertex="1" parent="1">
          <mxGeometry x="215" y="480" width="60" height="30" as="geometry" />
        </mxCell>
        <mxCell id="g_hzQ4VimOBog4s7BzL7-33" style="edgeStyle=orthogonalEdgeStyle;rounded=0;orthogonalLoop=1;jettySize=auto;html=1;entryX=-0.012;entryY=0.764;entryDx=0;entryDy=0;entryPerimeter=0;" edge="1" parent="1" source="g_hzQ4VimOBog4s7BzL7-31" target="g_hzQ4VimOBog4s7BzL7-24">
          <mxGeometry relative="1" as="geometry" />
        </mxCell>
        <mxCell id="g_hzQ4VimOBog4s7BzL7-40" style="edgeStyle=orthogonalEdgeStyle;rounded=0;orthogonalLoop=1;jettySize=auto;html=1;" edge="1" parent="1" source="g_hzQ4VimOBog4s7BzL7-35">
          <mxGeometry relative="1" as="geometry">
            <mxPoint x="530" y="430" as="targetPoint" />
          </mxGeometry>
        </mxCell>
        <mxCell id="g_hzQ4VimOBog4s7BzL7-35" value="Embedding Model" style="label;whiteSpace=wrap;html=1;image=img/clipart/Gear_128x128.png" vertex="1" parent="1">
          <mxGeometry x="460" y="320" width="140" height="50" as="geometry" />
        </mxCell>
        <mxCell id="g_hzQ4VimOBog4s7BzL7-39" value="Embedding Model" style="label;whiteSpace=wrap;html=1;image=img/clipart/Gear_128x128.png" vertex="1" parent="1">
          <mxGeometry x="1050" y="195" width="140" height="55" as="geometry" />
        </mxCell>
        <mxCell id="g_hzQ4VimOBog4s7BzL7-41" value="" style="rounded=1;whiteSpace=wrap;html=1;fillColor=#f8cecc;strokeColor=#b85450;" vertex="1" parent="1">
          <mxGeometry x="1380" y="390" width="120" height="60" as="geometry" />
        </mxCell>
        <mxCell id="g_hzQ4VimOBog4s7BzL7-43" value="" style="rounded=1;whiteSpace=wrap;html=1;fillColor=#f8cecc;strokeColor=#b85450;" vertex="1" parent="1">
          <mxGeometry x="1390" y="400" width="120" height="60" as="geometry" />
        </mxCell>
        <mxCell id="g_hzQ4VimOBog4s7BzL7-44" value="" style="rounded=1;whiteSpace=wrap;html=1;fillColor=#f8cecc;strokeColor=#b85450;" vertex="1" parent="1">
          <mxGeometry x="1400" y="410" width="120" height="60" as="geometry" />
        </mxCell>
        <mxCell id="g_hzQ4VimOBog4s7BzL7-45" value="" style="rounded=1;whiteSpace=wrap;html=1;fillColor=#f8cecc;strokeColor=#b85450;" vertex="1" parent="1">
          <mxGeometry x="1410" y="420" width="120" height="60" as="geometry" />
        </mxCell>
        <mxCell id="g_hzQ4VimOBog4s7BzL7-46" value="Top-k Chunks" style="rounded=1;whiteSpace=wrap;html=1;fillColor=#f8cecc;strokeColor=#b85450;" vertex="1" parent="1">
          <mxGeometry x="1420" y="430" width="120" height="60" as="geometry" />
        </mxCell>
        <mxCell id="g_hzQ4VimOBog4s7BzL7-47" value="" style="edgeStyle=orthogonalEdgeStyle;rounded=0;orthogonalLoop=1;jettySize=auto;html=1;exitX=1;exitY=0.25;exitDx=0;exitDy=0;" edge="1" parent="1" source="g_hzQ4VimOBog4s7BzL7-46">
          <mxGeometry relative="1" as="geometry">
            <mxPoint x="1440" y="442" as="sourcePoint" />
            <mxPoint x="1670" y="442" as="targetPoint" />
            <Array as="points">
              <mxPoint x="1540" y="442" />
            </Array>
          </mxGeometry>
        </mxCell>
        <mxCell id="g_hzQ4VimOBog4s7BzL7-50" style="edgeStyle=orthogonalEdgeStyle;rounded=0;orthogonalLoop=1;jettySize=auto;html=1;" edge="1" parent="1" source="g_hzQ4VimOBog4s7BzL7-49" target="g_hzQ4VimOBog4s7BzL7-51">
          <mxGeometry relative="1" as="geometry">
            <mxPoint x="1720" y="730" as="targetPoint" />
            <Array as="points">
              <mxPoint x="1720" y="700" />
            </Array>
          </mxGeometry>
        </mxCell>
        <mxCell id="g_hzQ4VimOBog4s7BzL7-49" value="LLMs" style="ellipse;shape=cloud;whiteSpace=wrap;html=1;fillColor=#008a00;fontColor=#ffffff;strokeColor=#005700;" vertex="1" parent="1">
          <mxGeometry x="1660" y="392.5" width="140" height="107.5" as="geometry" />
        </mxCell>
        <mxCell id="g_hzQ4VimOBog4s7BzL7-52" style="edgeStyle=orthogonalEdgeStyle;rounded=0;orthogonalLoop=1;jettySize=auto;html=1;entryX=0.5;entryY=1;entryDx=0;entryDy=0;" edge="1" parent="1" source="g_hzQ4VimOBog4s7BzL7-51" target="g_hzQ4VimOBog4s7BzL7-24">
          <mxGeometry relative="1" as="geometry" />
        </mxCell>
        <mxCell id="g_hzQ4VimOBog4s7BzL7-51" value="Memory" style="shape=datastore;whiteSpace=wrap;html=1;fillColor=#f8cecc;strokeColor=#b85450;" vertex="1" parent="1">
          <mxGeometry x="1275" y="650" width="170" height="105" as="geometry" />
        </mxCell>
        <mxCell id="g_hzQ4VimOBog4s7BzL7-59" value="1" style="ellipse;whiteSpace=wrap;html=1;strokeWidth=2;fillWeight=2;hachureGap=8;fillColor=#FFCE9F;fillStyle=dots;sketch=1;" vertex="1" parent="1">
          <mxGeometry x="400" y="130" width="30" height="30" as="geometry" />
        </mxCell>
        <mxCell id="g_hzQ4VimOBog4s7BzL7-61" value="&lt;div&gt;&lt;span style=&quot;color: rgba(0, 0, 0, 0); font-family: monospace; font-size: 0px; text-align: start;&quot;&gt;%3CmxGraphModel%3E%3Croot%3E%3CmxCell%20id%3D%220%22%2F%3E%3CmxCell%20id%3D%221%22%20parent%3D%220%22%2F%3E%3CmxCell%20id%3D%222%22%20value%3D%22%22%20style%3D%22shape%3Ddatastore%3BwhiteSpace%3Dwrap%3Bhtml%3D1%3BfillColor%3D%23f8cecc%3BstrokeColor%3D%23b85450%3B%22%20vertex%3D%221%22%20parent%3D%221%22%3E%3CmxGeometry%20x%3D%22880%22%20y%3D%22360%22%20width%3D%22170%22%20height%3D%22165%22%20as%3D%22geometry%22%2F%3E%3C%2FmxCell%3E%3C%2Froot%3E%3C%2FmxGraphModel%3E&lt;/span&gt;&lt;br&gt;&lt;/div&gt;" style="text;html=1;align=center;verticalAlign=middle;resizable=0;points=[];autosize=1;strokeColor=none;fillColor=none;" vertex="1" parent="1">
          <mxGeometry x="101" y="619" width="20" height="30" as="geometry" />
        </mxCell>
        <mxCell id="g_hzQ4VimOBog4s7BzL7-63" value="&#xa;&lt;p style=&quot;margin-block: 0px; margin-inline: 0px; padding: 0px; hyphens: manual; margin-top: 1.096rem; color: rgb(51, 51, 51); font-family: &amp;quot;Sitka Text&amp;quot;, Georgia, Cambria, Calibri; font-size: 13.68px; font-style: normal; font-variant-ligatures: normal; font-variant-caps: normal; font-weight: 400; letter-spacing: normal; orphans: 2; text-align: start; text-indent: 0px; text-transform: none; widows: 2; word-spacing: 0px; -webkit-text-stroke-width: 0px; white-space: normal; background-color: rgb(249, 245, 233); text-decoration-thickness: initial; text-decoration-style: initial; text-decoration-color: initial;&quot;&gt;NO.1&amp;nbsp;&amp;nbsp;&amp;nbsp;数据清洗&lt;/p&gt;&lt;p style=&quot;margin-block: 0px; margin-inline: 0px; padding: 0px; hyphens: manual; margin-top: 1.096rem; color: rgb(51, 51, 51); font-family: &amp;quot;Sitka Text&amp;quot;, Georgia, Cambria, Calibri; font-size: 13.68px; font-style: normal; font-variant-ligatures: normal; font-variant-caps: normal; font-weight: 400; letter-spacing: normal; orphans: 2; text-align: start; text-indent: 0px; text-transform: none; widows: 2; word-spacing: 0px; -webkit-text-stroke-width: 0px; white-space: normal; background-color: rgb(249, 245, 233); text-decoration-thickness: initial; text-decoration-style: initial; text-decoration-color: initial;&quot;&gt;&lt;/p&gt;&lt;p style=&quot;margin-block: 0px; margin-inline: 0px; padding: 0px; hyphens: manual; margin-top: 1.096rem; color: rgb(51, 51, 51); font-family: &amp;quot;Sitka Text&amp;quot;, Georgia, Cambria, Calibri; font-size: 13.68px; font-style: normal; font-variant-ligatures: normal; font-variant-caps: normal; font-weight: 400; letter-spacing: normal; orphans: 2; text-align: start; text-indent: 0px; text-transform: none; widows: 2; word-spacing: 0px; -webkit-text-stroke-width: 0px; white-space: normal; background-color: rgb(249, 245, 233); text-decoration-thickness: initial; text-decoration-style: initial; text-decoration-color: initial;&quot;&gt;高性能RAG系统依赖于准确且清洁的原始知识数据。一方面为了保证数据的准确性，我们需要优化文档读取器和多模态模型。特别是处理如CSV表格等文件时，单纯的文本转换可能会丢失表格原有的结构。因此，我们需引入额外的机制以在文本中恢复表格结构，比如使用分号或其他符号来区分数据。另一方面我们也需要对知识文档做一些基本数据清洗其中可以包括：&lt;/p&gt;&lt;p style=&quot;margin-block: 0px; margin-inline: 0px; padding: 0px; hyphens: manual; margin-top: 1.096rem; color: rgb(51, 51, 51); font-family: &amp;quot;Sitka Text&amp;quot;, Georgia, Cambria, Calibri; font-size: 13.68px; font-style: normal; font-variant-ligatures: normal; font-variant-caps: normal; font-weight: 400; letter-spacing: normal; orphans: 2; text-align: start; text-indent: 0px; text-transform: none; widows: 2; word-spacing: 0px; -webkit-text-stroke-width: 0px; white-space: normal; background-color: rgb(249, 245, 233); text-decoration-thickness: initial; text-decoration-style: initial; text-decoration-color: initial;&quot;&gt;&lt;/p&gt;&lt;p style=&quot;margin-block: 0px; margin-inline: 0px; padding: 0px; hyphens: manual; margin-top: 1.096rem; color: rgb(51, 51, 51); font-family: &amp;quot;Sitka Text&amp;quot;, Georgia, Cambria, Calibri; font-size: 13.68px; font-style: normal; font-variant-ligatures: normal; font-variant-caps: normal; font-weight: 400; letter-spacing: normal; orphans: 2; text-align: start; text-indent: 0px; text-transform: none; widows: 2; word-spacing: 0px; -webkit-text-stroke-width: 0px; white-space: normal; background-color: rgb(249, 245, 233); text-decoration-thickness: initial; text-decoration-style: initial; text-decoration-color: initial;&quot;&gt;a)&lt;strong style=&quot;margin-block: 0px; margin-inline: 0px;&quot;&gt;基本文本清理&lt;/strong&gt;：规范文本格式，去除特殊字符和不相关信息。除重复文档或冗余信息。&lt;/p&gt;&lt;p style=&quot;margin-block: 0px; margin-inline: 0px; padding: 0px; hyphens: manual; margin-top: 1.096rem; color: rgb(51, 51, 51); font-family: &amp;quot;Sitka Text&amp;quot;, Georgia, Cambria, Calibri; font-size: 13.68px; font-style: normal; font-variant-ligatures: normal; font-variant-caps: normal; font-weight: 400; letter-spacing: normal; orphans: 2; text-align: start; text-indent: 0px; text-transform: none; widows: 2; word-spacing: 0px; -webkit-text-stroke-width: 0px; white-space: normal; background-color: rgb(249, 245, 233); text-decoration-thickness: initial; text-decoration-style: initial; text-decoration-color: initial;&quot;&gt;&lt;/p&gt;&lt;p style=&quot;margin-block: 0px; margin-inline: 0px; padding: 0px; hyphens: manual; margin-top: 1.096rem; color: rgb(51, 51, 51); font-family: &amp;quot;Sitka Text&amp;quot;, Georgia, Cambria, Calibri; font-size: 13.68px; font-style: normal; font-variant-ligatures: normal; font-variant-caps: normal; font-weight: 400; letter-spacing: normal; orphans: 2; text-align: start; text-indent: 0px; text-transform: none; widows: 2; word-spacing: 0px; -webkit-text-stroke-width: 0px; white-space: normal; background-color: rgb(249, 245, 233); text-decoration-thickness: initial; text-decoration-style: initial; text-decoration-color: initial;&quot;&gt;b)&lt;strong style=&quot;margin-block: 0px; margin-inline: 0px;&quot;&gt;实体解析&lt;/strong&gt;：消除实体和术语的歧义以实现一致的引用。例如，将“LLM”、“大语言模型”和“大模型”标准化为通用术语。&lt;/p&gt;&lt;p style=&quot;margin-block: 0px; margin-inline: 0px; padding: 0px; hyphens: manual; margin-top: 1.096rem; color: rgb(51, 51, 51); font-family: &amp;quot;Sitka Text&amp;quot;, Georgia, Cambria, Calibri; font-size: 13.68px; font-style: normal; font-variant-ligatures: normal; font-variant-caps: normal; font-weight: 400; letter-spacing: normal; orphans: 2; text-align: start; text-indent: 0px; text-transform: none; widows: 2; word-spacing: 0px; -webkit-text-stroke-width: 0px; white-space: normal; background-color: rgb(249, 245, 233); text-decoration-thickness: initial; text-decoration-style: initial; text-decoration-color: initial;&quot;&gt;&lt;/p&gt;&lt;p style=&quot;margin-block: 0px; margin-inline: 0px; padding: 0px; hyphens: manual; margin-top: 1.096rem; color: rgb(51, 51, 51); font-family: &amp;quot;Sitka Text&amp;quot;, Georgia, Cambria, Calibri; font-size: 13.68px; font-style: normal; font-variant-ligatures: normal; font-variant-caps: normal; font-weight: 400; letter-spacing: normal; orphans: 2; text-align: start; text-indent: 0px; text-transform: none; widows: 2; word-spacing: 0px; -webkit-text-stroke-width: 0px; white-space: normal; background-color: rgb(249, 245, 233); text-decoration-thickness: initial; text-decoration-style: initial; text-decoration-color: initial;&quot;&gt;c)&lt;strong style=&quot;margin-block: 0px; margin-inline: 0px;&quot;&gt;文档划分&lt;/strong&gt;：合理地划分不同主题的文档，不同主题是集中在一处还是分散在多处？如果作为人类都不能轻松地判断出需要查阅哪个文档才能来回答常见的提问，那么检索系统也无法做到。&lt;/p&gt;&lt;p style=&quot;margin-block: 0px; margin-inline: 0px; padding: 0px; hyphens: manual; margin-top: 1.096rem; color: rgb(51, 51, 51); font-family: &amp;quot;Sitka Text&amp;quot;, Georgia, Cambria, Calibri; font-size: 13.68px; font-style: normal; font-variant-ligatures: normal; font-variant-caps: normal; font-weight: 400; letter-spacing: normal; orphans: 2; text-align: start; text-indent: 0px; text-transform: none; widows: 2; word-spacing: 0px; -webkit-text-stroke-width: 0px; white-space: normal; background-color: rgb(249, 245, 233); text-decoration-thickness: initial; text-decoration-style: initial; text-decoration-color: initial;&quot;&gt;&lt;/p&gt;&lt;p style=&quot;margin-block: 0px; margin-inline: 0px; padding: 0px; hyphens: manual; margin-top: 1.096rem; color: rgb(51, 51, 51); font-family: &amp;quot;Sitka Text&amp;quot;, Georgia, Cambria, Calibri; font-size: 13.68px; font-style: normal; font-variant-ligatures: normal; font-variant-caps: normal; font-weight: 400; letter-spacing: normal; orphans: 2; text-align: start; text-indent: 0px; text-transform: none; widows: 2; word-spacing: 0px; -webkit-text-stroke-width: 0px; white-space: normal; background-color: rgb(249, 245, 233); text-decoration-thickness: initial; text-decoration-style: initial; text-decoration-color: initial;&quot;&gt;d)&lt;strong style=&quot;margin-block: 0px; margin-inline: 0px;&quot;&gt;数据增强&lt;/strong&gt;：使用同义词、释义甚至其他语言的翻译来增加语料库的多样性。&lt;/p&gt;&lt;p style=&quot;margin-block: 0px; margin-inline: 0px; padding: 0px; hyphens: manual; margin-top: 1.096rem; color: rgb(51, 51, 51); font-family: &amp;quot;Sitka Text&amp;quot;, Georgia, Cambria, Calibri; font-size: 13.68px; font-style: normal; font-variant-ligatures: normal; font-variant-caps: normal; font-weight: 400; letter-spacing: normal; orphans: 2; text-align: start; text-indent: 0px; text-transform: none; widows: 2; word-spacing: 0px; -webkit-text-stroke-width: 0px; white-space: normal; background-color: rgb(249, 245, 233); text-decoration-thickness: initial; text-decoration-style: initial; text-decoration-color: initial;&quot;&gt;&lt;/p&gt;&lt;p style=&quot;margin-block: 0px; margin-inline: 0px; padding: 0px; hyphens: manual; margin-top: 1.096rem; color: rgb(51, 51, 51); font-family: &amp;quot;Sitka Text&amp;quot;, Georgia, Cambria, Calibri; font-size: 13.68px; font-style: normal; font-variant-ligatures: normal; font-variant-caps: normal; font-weight: 400; letter-spacing: normal; orphans: 2; text-align: start; text-indent: 0px; text-transform: none; widows: 2; word-spacing: 0px; -webkit-text-stroke-width: 0px; white-space: normal; background-color: rgb(249, 245, 233); text-decoration-thickness: initial; text-decoration-style: initial; text-decoration-color: initial;&quot;&gt;e)&lt;strong style=&quot;margin-block: 0px; margin-inline: 0px;&quot;&gt;用户反馈循环&lt;/strong&gt;：基于现实世界用户的反馈不断更新数据库，标记它们的真实性。&lt;/p&gt;&lt;p style=&quot;margin-block: 0px; margin-inline: 0px; padding: 0px; hyphens: manual; margin-top: 1.096rem; color: rgb(51, 51, 51); font-family: &amp;quot;Sitka Text&amp;quot;, Georgia, Cambria, Calibri; font-size: 13.68px; font-style: normal; font-variant-ligatures: normal; font-variant-caps: normal; font-weight: 400; letter-spacing: normal; orphans: 2; text-align: start; text-indent: 0px; text-transform: none; widows: 2; word-spacing: 0px; -webkit-text-stroke-width: 0px; white-space: normal; background-color: rgb(249, 245, 233); text-decoration-thickness: initial; text-decoration-style: initial; text-decoration-color: initial;&quot;&gt;&lt;/p&gt;&lt;p style=&quot;margin-block: 0px; margin-inline: 0px; padding: 0px; hyphens: manual; margin-top: 1.096rem; color: rgb(51, 51, 51); font-family: &amp;quot;Sitka Text&amp;quot;, Georgia, Cambria, Calibri; font-size: 13.68px; font-style: normal; font-variant-ligatures: normal; font-variant-caps: normal; font-weight: 400; letter-spacing: normal; orphans: 2; text-align: start; text-indent: 0px; text-transform: none; widows: 2; word-spacing: 0px; -webkit-text-stroke-width: 0px; white-space: normal; background-color: rgb(249, 245, 233); text-decoration-thickness: initial; text-decoration-style: initial; text-decoration-color: initial;&quot;&gt;f)&lt;strong style=&quot;margin-block: 0px; margin-inline: 0px;&quot;&gt;时间敏感数据&lt;/strong&gt;：对于经常更新的主题，实施一种机制来使过时的文档失效或更新。&lt;/p&gt;&#xa;&#xa;" style="html=1;shadow=0;dashed=0;shape=mxgraph.bootstrap.rrect;rSize=5;strokeColor=#999999;strokeWidth=1;fillColor=#FFFFFF;fontColor=#6C767D;whiteSpace=wrap;align=left;verticalAlign=middle;spacingLeft=10;fontSize=14;spacing=10;" vertex="1" parent="1">
          <mxGeometry x="60" y="970" width="730" height="350" as="geometry" />
        </mxCell>
        <mxCell id="g_hzQ4VimOBog4s7BzL7-64" value="2" style="ellipse;whiteSpace=wrap;html=1;strokeWidth=2;fillWeight=2;hachureGap=8;fillColor=#FFCE9F;fillStyle=dots;sketch=1;" vertex="1" parent="1">
          <mxGeometry x="700" y="60" width="30" height="30" as="geometry" />
        </mxCell>
        <mxCell id="g_hzQ4VimOBog4s7BzL7-65" value="&#xa;&lt;p style=&quot;margin-block: 0px; margin-inline: 0px; padding: 0px; hyphens: manual; margin-top: 1.096rem; color: rgb(51, 51, 51); font-family: &amp;quot;Sitka Text&amp;quot;, Georgia, Cambria, Calibri; font-size: 13.68px; font-style: normal; font-variant-ligatures: normal; font-variant-caps: normal; font-weight: 400; letter-spacing: normal; orphans: 2; text-align: start; text-indent: 0px; text-transform: none; widows: 2; word-spacing: 0px; -webkit-text-stroke-width: 0px; white-space: normal; background-color: rgb(249, 245, 233); text-decoration-thickness: initial; text-decoration-style: initial; text-decoration-color: initial;&quot;&gt;NO.2&amp;nbsp;&amp;nbsp;分块处理&lt;/p&gt;&lt;p style=&quot;margin-block: 0px; margin-inline: 0px; padding: 0px; hyphens: manual; margin-top: 1.096rem; color: rgb(51, 51, 51); font-family: &amp;quot;Sitka Text&amp;quot;, Georgia, Cambria, Calibri; font-size: 13.68px; font-style: normal; font-variant-ligatures: normal; font-variant-caps: normal; font-weight: 400; letter-spacing: normal; orphans: 2; text-align: start; text-indent: 0px; text-transform: none; widows: 2; word-spacing: 0px; -webkit-text-stroke-width: 0px; white-space: normal; background-color: rgb(249, 245, 233); text-decoration-thickness: initial; text-decoration-style: initial; text-decoration-color: initial;&quot;&gt;&lt;/p&gt;&lt;p style=&quot;margin-block: 0px; margin-inline: 0px; padding: 0px; hyphens: manual; margin-top: 1.096rem; color: rgb(51, 51, 51); font-family: &amp;quot;Sitka Text&amp;quot;, Georgia, Cambria, Calibri; font-size: 13.68px; font-style: normal; font-variant-ligatures: normal; font-variant-caps: normal; font-weight: 400; letter-spacing: normal; orphans: 2; text-align: start; text-indent: 0px; text-transform: none; widows: 2; word-spacing: 0px; -webkit-text-stroke-width: 0px; white-space: normal; background-color: rgb(249, 245, 233); text-decoration-thickness: initial; text-decoration-style: initial; text-decoration-color: initial;&quot;&gt;在RAG系统中，文档需要分割成多个文本块再进行向量嵌入。在不考虑大模型输入长度限制和成本问题情况下，其目的是在保持语义上的连贯性的同时，尽可能减少嵌入内容中的噪声，从而更有效地找到与用户查询最相关的文档部分。如果分块太大，可能包含太多不相关的信息，从而降低了检索的准确性。相反，分块太小可能会丢失必要的上下文信息，导致生成的回应缺乏连贯性或深度。在RAG系统中实施合适的文档分块策略，旨在找到这种平衡，确保信息的完整性和相关性。一般来说，理想的文本块应当在没有周围上下文的情况下对人类来说仍然有意义，这样对语言模型来说也是有意义的。&lt;/p&gt;&lt;p style=&quot;margin-block: 0px; margin-inline: 0px; padding: 0px; hyphens: manual; margin-top: 1.096rem; color: rgb(51, 51, 51); font-family: &amp;quot;Sitka Text&amp;quot;, Georgia, Cambria, Calibri; font-size: 13.68px; font-style: normal; font-variant-ligatures: normal; font-variant-caps: normal; font-weight: 400; letter-spacing: normal; orphans: 2; text-align: start; text-indent: 0px; text-transform: none; widows: 2; word-spacing: 0px; -webkit-text-stroke-width: 0px; white-space: normal; background-color: rgb(249, 245, 233); text-decoration-thickness: initial; text-decoration-style: initial; text-decoration-color: initial;&quot;&gt;&lt;/p&gt;&lt;p style=&quot;margin-block: 0px; margin-inline: 0px; padding: 0px; hyphens: manual; margin-top: 1.096rem; color: rgb(51, 51, 51); font-family: &amp;quot;Sitka Text&amp;quot;, Georgia, Cambria, Calibri; font-size: 13.68px; font-style: normal; font-variant-ligatures: normal; font-variant-caps: normal; font-weight: 400; letter-spacing: normal; orphans: 2; text-align: start; text-indent: 0px; text-transform: none; widows: 2; word-spacing: 0px; -webkit-text-stroke-width: 0px; white-space: normal; background-color: rgb(249, 245, 233); text-decoration-thickness: initial; text-decoration-style: initial; text-decoration-color: initial;&quot;&gt;&lt;strong style=&quot;margin-block: 0px; margin-inline: 0px;&quot;&gt;分块方法的选择：&lt;/strong&gt;&lt;/p&gt;&lt;p style=&quot;margin-block: 0px; margin-inline: 0px; padding: 0px; hyphens: manual; margin-top: 1.096rem; color: rgb(51, 51, 51); font-family: &amp;quot;Sitka Text&amp;quot;, Georgia, Cambria, Calibri; font-size: 13.68px; font-style: normal; font-variant-ligatures: normal; font-variant-caps: normal; font-weight: 400; letter-spacing: normal; orphans: 2; text-align: start; text-indent: 0px; text-transform: none; widows: 2; word-spacing: 0px; -webkit-text-stroke-width: 0px; white-space: normal; background-color: rgb(249, 245, 233); text-decoration-thickness: initial; text-decoration-style: initial; text-decoration-color: initial;&quot;&gt;&lt;/p&gt;&lt;p style=&quot;margin-block: 0px; margin-inline: 0px; padding: 0px; hyphens: manual; margin-top: 1.096rem; color: rgb(51, 51, 51); font-family: &amp;quot;Sitka Text&amp;quot;, Georgia, Cambria, Calibri; font-size: 13.68px; font-style: normal; font-variant-ligatures: normal; font-variant-caps: normal; font-weight: 400; letter-spacing: normal; orphans: 2; text-align: start; text-indent: 0px; text-transform: none; widows: 2; word-spacing: 0px; -webkit-text-stroke-width: 0px; white-space: normal; background-color: rgb(249, 245, 233); text-decoration-thickness: initial; text-decoration-style: initial; text-decoration-color: initial;&quot;&gt;固定大小的分块：这是最简单和直接的方法，我们直接设定块中的字数，并选择块之间是否重复内容。通常，我们会保持块之间的一些重叠，以确保语义上下文不会在块之间丢失。与其他形式的分块相比，固定大小分块简单易用且不需要很多计算资源。&lt;/p&gt;&lt;p style=&quot;margin-block: 0px; margin-inline: 0px; padding: 0px; hyphens: manual; margin-top: 1.096rem; color: rgb(51, 51, 51); font-family: &amp;quot;Sitka Text&amp;quot;, Georgia, Cambria, Calibri; font-size: 13.68px; font-style: normal; font-variant-ligatures: normal; font-variant-caps: normal; font-weight: 400; letter-spacing: normal; orphans: 2; text-align: start; text-indent: 0px; text-transform: none; widows: 2; word-spacing: 0px; -webkit-text-stroke-width: 0px; white-space: normal; background-color: rgb(249, 245, 233); text-decoration-thickness: initial; text-decoration-style: initial; text-decoration-color: initial;&quot;&gt;&lt;/p&gt;&lt;p style=&quot;margin-block: 0px; margin-inline: 0px; padding: 0px; hyphens: manual; margin-top: 1.096rem; color: rgb(51, 51, 51); font-family: &amp;quot;Sitka Text&amp;quot;, Georgia, Cambria, Calibri; font-size: 13.68px; font-style: normal; font-variant-ligatures: normal; font-variant-caps: normal; font-weight: 400; letter-spacing: normal; orphans: 2; text-align: start; text-indent: 0px; text-transform: none; widows: 2; word-spacing: 0px; -webkit-text-stroke-width: 0px; white-space: normal; background-color: rgb(249, 245, 233); text-decoration-thickness: initial; text-decoration-style: initial; text-decoration-color: initial;&quot;&gt;&lt;strong style=&quot;margin-block: 0px; margin-inline: 0px;&quot;&gt;&amp;nbsp;内容分块&lt;/strong&gt;：顾名思义，根据文档的具体内容进行分块，例如根据标点符号（如句号）分割。或者直接使用更高级的NLTK或者&lt;span style=&quot;margin-block: 0px; margin-inline: 0px;&quot; class=&quot;words-blog hl-git-1&quot;&gt;spaCy&lt;/span&gt;库提供的句子分割功能。&lt;/p&gt;&lt;p style=&quot;margin-block: 0px; margin-inline: 0px; padding: 0px; hyphens: manual; margin-top: 1.096rem; color: rgb(51, 51, 51); font-family: &amp;quot;Sitka Text&amp;quot;, Georgia, Cambria, Calibri; font-size: 13.68px; font-style: normal; font-variant-ligatures: normal; font-variant-caps: normal; font-weight: 400; letter-spacing: normal; orphans: 2; text-align: start; text-indent: 0px; text-transform: none; widows: 2; word-spacing: 0px; -webkit-text-stroke-width: 0px; white-space: normal; background-color: rgb(249, 245, 233); text-decoration-thickness: initial; text-decoration-style: initial; text-decoration-color: initial;&quot;&gt;&lt;/p&gt;&lt;p style=&quot;margin-block: 0px; margin-inline: 0px; padding: 0px; hyphens: manual; margin-top: 1.096rem; color: rgb(51, 51, 51); font-family: &amp;quot;Sitka Text&amp;quot;, Georgia, Cambria, Calibri; font-size: 13.68px; font-style: normal; font-variant-ligatures: normal; font-variant-caps: normal; font-weight: 400; letter-spacing: normal; orphans: 2; text-align: start; text-indent: 0px; text-transform: none; widows: 2; word-spacing: 0px; -webkit-text-stroke-width: 0px; white-space: normal; background-color: rgb(249, 245, 233); text-decoration-thickness: initial; text-decoration-style: initial; text-decoration-color: initial;&quot;&gt;&lt;strong style=&quot;margin-block: 0px; margin-inline: 0px;&quot;&gt;递归分块&lt;/strong&gt;：在大多数情况下推荐的方法。其通过重复地应用分块规则来递归地分解文本。例如，在langchain中会先通过段落换行符（`\n\n`）进行分割。然后，检查这些块的大小。如果大小不超过一定阈值，则该块被保留。对于大小超过标准的块，使用单换行符（`\n`）再次分割。以此类推，不断根据块大小更新更小的分块规则（如空格，句号）。这种方法可以灵活地调整块的大小。例如，对于文本中的密集信息部分，可能需要更细的分割来捕捉细节；而对于信息较少的部分，则可以使用更大的块。而它的挑战在于，需要制定精细的规则来决定何时和如何分割文本。&lt;/p&gt;&lt;p style=&quot;margin-block: 0px; margin-inline: 0px; padding: 0px; hyphens: manual; margin-top: 1.096rem; color: rgb(51, 51, 51); font-family: &amp;quot;Sitka Text&amp;quot;, Georgia, Cambria, Calibri; font-size: 13.68px; font-style: normal; font-variant-ligatures: normal; font-variant-caps: normal; font-weight: 400; letter-spacing: normal; orphans: 2; text-align: start; text-indent: 0px; text-transform: none; widows: 2; word-spacing: 0px; -webkit-text-stroke-width: 0px; white-space: normal; background-color: rgb(249, 245, 233); text-decoration-thickness: initial; text-decoration-style: initial; text-decoration-color: initial;&quot;&gt;&lt;/p&gt;&lt;p style=&quot;margin-block: 0px; margin-inline: 0px; padding: 0px; hyphens: manual; margin-top: 1.096rem; color: rgb(51, 51, 51); font-family: &amp;quot;Sitka Text&amp;quot;, Georgia, Cambria, Calibri; font-size: 13.68px; font-style: normal; font-variant-ligatures: normal; font-variant-caps: normal; font-weight: 400; letter-spacing: normal; orphans: 2; text-align: start; text-indent: 0px; text-transform: none; widows: 2; word-spacing: 0px; -webkit-text-stroke-width: 0px; white-space: normal; background-color: rgb(249, 245, 233); text-decoration-thickness: initial; text-decoration-style: initial; text-decoration-color: initial;&quot;&gt;&lt;strong style=&quot;margin-block: 0px; margin-inline: 0px;&quot;&gt;从小到大分块&lt;/strong&gt;：既然小的分块和大的分块各有各的优势，一种更为直接的解决方案是把同一文档进行从大到小所有尺寸的分割，然后把不同大小的分块全部存进向量数据库，并保存每个分块的上下级关系，进行递归搜索。但可想而知，因为我们要存储大量重复的内容，这种方案的缺点就是需要更大的储存空间，&lt;/p&gt;&lt;p style=&quot;margin-block: 0px; margin-inline: 0px; padding: 0px; hyphens: manual; margin-top: 1.096rem; color: rgb(51, 51, 51); font-family: &amp;quot;Sitka Text&amp;quot;, Georgia, Cambria, Calibri; font-size: 13.68px; font-style: normal; font-variant-ligatures: normal; font-variant-caps: normal; font-weight: 400; letter-spacing: normal; orphans: 2; text-align: start; text-indent: 0px; text-transform: none; widows: 2; word-spacing: 0px; -webkit-text-stroke-width: 0px; white-space: normal; background-color: rgb(249, 245, 233); text-decoration-thickness: initial; text-decoration-style: initial; text-decoration-color: initial;&quot;&gt;&lt;/p&gt;&lt;p style=&quot;margin-block: 0px; margin-inline: 0px; padding: 0px; hyphens: manual; margin-top: 1.096rem; color: rgb(51, 51, 51); font-family: &amp;quot;Sitka Text&amp;quot;, Georgia, Cambria, Calibri; font-size: 13.68px; font-style: normal; font-variant-ligatures: normal; font-variant-caps: normal; font-weight: 400; letter-spacing: normal; orphans: 2; text-align: start; text-indent: 0px; text-transform: none; widows: 2; word-spacing: 0px; -webkit-text-stroke-width: 0px; white-space: normal; background-color: rgb(249, 245, 233); text-decoration-thickness: initial; text-decoration-style: initial; text-decoration-color: initial;&quot;&gt;&lt;strong style=&quot;margin-block: 0px; margin-inline: 0px;&quot;&gt;特殊结构分块&lt;/strong&gt;：针对特定结构化内容的专门分割器。这些分割器特别设计来处理这些类型的文档，以确保正确地保留和理解其结构。langchain提供的特殊分割器包括：Markdown文件，&lt;span style=&quot;margin-block: 0px; margin-inline: 0px;&quot; class=&quot;words-blog hl-git-1&quot;&gt;Latex&lt;/span&gt;文件，以及各种主流代码语言分割器。&lt;/p&gt;&lt;p style=&quot;margin-block: 0px; margin-inline: 0px; padding: 0px; hyphens: manual; margin-top: 1.096rem; color: rgb(51, 51, 51); font-family: &amp;quot;Sitka Text&amp;quot;, Georgia, Cambria, Calibri; font-size: 13.68px; font-style: normal; font-variant-ligatures: normal; font-variant-caps: normal; font-weight: 400; letter-spacing: normal; orphans: 2; text-align: start; text-indent: 0px; text-transform: none; widows: 2; word-spacing: 0px; -webkit-text-stroke-width: 0px; white-space: normal; background-color: rgb(249, 245, 233); text-decoration-thickness: initial; text-decoration-style: initial; text-decoration-color: initial;&quot;&gt;&lt;/p&gt;&lt;p style=&quot;margin-block: 0px; margin-inline: 0px; padding: 0px; hyphens: manual; margin-top: 1.096rem; color: rgb(51, 51, 51); font-family: &amp;quot;Sitka Text&amp;quot;, Georgia, Cambria, Calibri; font-size: 13.68px; font-style: normal; font-variant-ligatures: normal; font-variant-caps: normal; font-weight: 400; letter-spacing: normal; orphans: 2; text-align: start; text-indent: 0px; text-transform: none; widows: 2; word-spacing: 0px; -webkit-text-stroke-width: 0px; white-space: normal; background-color: rgb(249, 245, 233); text-decoration-thickness: initial; text-decoration-style: initial; text-decoration-color: initial;&quot;&gt;&lt;strong style=&quot;margin-block: 0px; margin-inline: 0px;&quot;&gt;分块大小的选择：&lt;/strong&gt;&lt;/p&gt;&lt;p style=&quot;margin-block: 0px; margin-inline: 0px; padding: 0px; hyphens: manual; margin-top: 1.096rem; color: rgb(51, 51, 51); font-family: &amp;quot;Sitka Text&amp;quot;, Georgia, Cambria, Calibri; font-size: 13.68px; font-style: normal; font-variant-ligatures: normal; font-variant-caps: normal; font-weight: 400; letter-spacing: normal; orphans: 2; text-align: start; text-indent: 0px; text-transform: none; widows: 2; word-spacing: 0px; -webkit-text-stroke-width: 0px; white-space: normal; background-color: rgb(249, 245, 233); text-decoration-thickness: initial; text-decoration-style: initial; text-decoration-color: initial;&quot;&gt;&lt;/p&gt;&lt;p style=&quot;margin-block: 0px; margin-inline: 0px; padding: 0px; hyphens: manual; margin-top: 1.096rem; color: rgb(51, 51, 51); font-family: &amp;quot;Sitka Text&amp;quot;, Georgia, Cambria, Calibri; font-size: 13.68px; font-style: normal; font-variant-ligatures: normal; font-variant-caps: normal; font-weight: 400; letter-spacing: normal; orphans: 2; text-align: start; text-indent: 0px; text-transform: none; widows: 2; word-spacing: 0px; -webkit-text-stroke-width: 0px; white-space: normal; background-color: rgb(249, 245, 233); text-decoration-thickness: initial; text-decoration-style: initial; text-decoration-color: initial;&quot;&gt;上述方法中无一例外最终都需要设定一个参数——块的大小，那么我们如何选择呢？首先不同的嵌入模型有其最佳输入大小。比如Openai的text-embedding-ada-002的模型在256 或 512大小的块上效果更好。其次，文档的类型和用户查询的长度及复杂性也是决定分块大小的重要因素。处理长篇文章或书籍时，较大的分块有助于保留更多的上下文和主题连贯性；而对于社交媒体帖子，较小的分块可能更适合捕捉每个帖子的精确语义。如果用户的查询通常是简短和具体的，较小的分块可能更为合适；相反，如果查询较为复杂，可能需要更大的分块。实际场景中，我们可能还是需要不断实验调整，在一些测试中，128大小的分块往往是最佳选择，在无从下手时，可以从这个大小作为起点进行测试。&lt;/p&gt;&#xa;&#xa;" style="html=1;shadow=0;dashed=0;shape=mxgraph.bootstrap.rrect;rSize=5;strokeColor=#999999;strokeWidth=1;fillColor=#FFFFFF;fontColor=#6C767D;whiteSpace=wrap;align=left;verticalAlign=middle;spacingLeft=10;fontSize=14;spacing=10;" vertex="1" parent="1">
          <mxGeometry x="820" y="970" width="1190" height="500" as="geometry" />
        </mxCell>
        <mxCell id="g_hzQ4VimOBog4s7BzL7-66" value="3" style="ellipse;whiteSpace=wrap;html=1;strokeWidth=2;fillWeight=2;hachureGap=8;fillColor=#FFCE9F;fillStyle=dots;sketch=1;" vertex="1" parent="1">
          <mxGeometry x="1200" y="210" width="30" height="30" as="geometry" />
        </mxCell>
        <mxCell id="g_hzQ4VimOBog4s7BzL7-71" value="" style="edgeStyle=orthogonalEdgeStyle;rounded=0;orthogonalLoop=1;jettySize=auto;html=1;" edge="1" parent="1" source="g_hzQ4VimOBog4s7BzL7-24" target="g_hzQ4VimOBog4s7BzL7-70">
          <mxGeometry relative="1" as="geometry">
            <mxPoint x="1050" y="443" as="sourcePoint" />
            <mxPoint x="1380" y="443" as="targetPoint" />
            <Array as="points" />
          </mxGeometry>
        </mxCell>
        <mxCell id="g_hzQ4VimOBog4s7BzL7-70" value="Retriver" style="html=1;shadow=0;dashed=0;shape=mxgraph.bootstrap.rrect;rSize=5;strokeColor=none;strokeWidth=1;fillColor=#1CA5B8;fontColor=#FFFFFF;whiteSpace=wrap;align=center;verticalAlign=middle;spacingLeft=0;fontStyle=1;fontSize=14;spacing=5;" vertex="1" parent="1">
          <mxGeometry x="1150" y="416.25" width="110" height="52.5" as="geometry" />
        </mxCell>
        <mxCell id="g_hzQ4VimOBog4s7BzL7-72" value="4" style="ellipse;whiteSpace=wrap;html=1;strokeWidth=2;fillWeight=2;hachureGap=8;fillColor=#FFCE9F;fillStyle=dots;sketch=1;" vertex="1" parent="1">
          <mxGeometry x="1180" y="386.25" width="30" height="30" as="geometry" />
        </mxCell>
      </root>
    </mxGraphModel>
  </diagram>
</mxfile>
